<svg xmlns="http://www.w3.org/2000/svg" viewBox="0 0 480 320"><style>.ctl,.deco,.wedge{fill:#4a4a4a;stroke:#9c9c9c;stroke-width:1.5}.deco,.wedge{fill:#3d3d3d;stroke:#8a8a8a}.wedge{fill:#454545;stroke-width:1}.lbl,.lbl2{fill:#c9c9c9;font:700 12px Arial,sans-serif;text-anchor:middle}.lbl2{fill:#909090;font:700 7px Arial,sans-serif}</style><rect width="58" height="22" x="96" y="6" class="ctl" data-input="b6" rx="7"/><rect width="58" height="22" x="326" y="6" class="ctl" data-input="b7" rx="7"/><rect width="88" height="16" x="86" y="34" class="ctl" data-input="b4" rx="8"/><rect width="88" height="16" x="306" y="34" class="ctl" data-input="b5" rx="8"/><path d="M105 64h270c30 0 50 20 55 46l18 100c6 38-12 66-44 66-24 0-36-18-48-36s-26-26-56-26H180c-30 0-44 8-56 26s-24 36-48 36c-32 0-50-28-44-66l18-100c5-26 25-46 55-46Z" style="fill:#333;stroke:#8a8a8a;stroke-width:2"/><path d="m140 90-8 10h16z" class="wedge" data-input="a1-"/><path d="m140 170-8-10h16z" class="wedge" data-input="a1+"/><path d="m100 130 10-8v16z" class="wedge" data-input="a0-"/><path d="m180 130-10-8v16z" class="wedge" data-input="a0+"/><circle cx="140" cy="130" r="26" class="ctl" data-input="b10"/><circle cx="140" cy="130" r="15" class="deco"/><path d="m288 156-8 10h16z" class="wedge" data-input="a3-"/><path d="m288 236-8-10h16z" class="wedge" data-input="a3+"/><path d="m248 196 10-8v16z" class="wedge" data-input="a2-"/><path d="m328 196-10-8v16z" class="wedge" data-input="a2+"/><circle cx="288" cy="196" r="26" class="ctl" data-input="b11"/><circle cx="288" cy="196" r="15" class="deco"/><rect width="24" height="64" x="184" y="164" class="deco" rx="5"/><rect width="64" height="24" x="164" y="184" class="deco" rx="5"/><rect width="20" height="20" x="186" y="166" class="ctl" data-input="b12" rx="3"/><rect width="20" height="20" x="186" y="206" class="ctl" data-input="b13" rx="3"/><rect width="20" height="20" x="166" y="186" class="ctl" data-input="b14" rx="3"/><rect width="20" height="20" x="206" y="186" class="ctl" data-input="b15" rx="3"/><g data-input="b3"><circle cx="340" cy="98" r="14" class="ctl"/><text x="340" y="102.5" class="lbl">Y</text></g><g data-input="b2"><circle cx="308" cy="130" r="14" class="ctl"/><text x="308" y="134.5" class="lbl">X</text></g><g data-input="b1"><circle cx="372" cy="130" r="14" class="ctl"/><text x="372" y="134.5" class="lbl">B</text></g><g data-input="b0"><circle cx="340" cy="162" r="14" class="ctl"/><text x="340" y="166.5" class="lbl">A</text></g><g data-input="b8"><circle cx="214" cy="130" r="10" class="ctl"/><text x="214" y="152" class="lbl2">BACK</text></g><g data-input="b9"><circle cx="266" cy="130" r="10" class="ctl"/><text x="266" y="152" class="lbl2">START</text></g></svg>